<?xml version="1.0" encoding="UTF-8" standalone="no"?>
<!-- Created with Inkscape (http://www.inkscape.org/) -->

<svg
   width="120mm"
   height="120mm"
   viewBox="0 0 120 120"
   version="1.1"
   id="svg5"
   xml:space="preserve"
   inkscape:version="1.2.2 (732a01da63, 2022-12-09)"
   sodipodi:docname="Helium.svg"
   xmlns:inkscape="http://www.inkscape.org/namespaces/inkscape"
   xmlns:sodipodi="http://sodipodi.sourceforge.net/DTD/sodipodi-0.dtd"
   xmlns:xlink="http://www.w3.org/1999/xlink"
   xmlns="http://www.w3.org/2000/svg"
   xmlns:svg="http://www.w3.org/2000/svg"><sodipodi:namedview
     id="namedview7"
     pagecolor="#ffffff"
     bordercolor="#000000"
     borderopacity="0.25"
     inkscape:showpageshadow="2"
     inkscape:pageopacity="0.0"
     inkscape:pagecheckerboard="0"
     inkscape:deskcolor="#d1d1d1"
     inkscape:document-units="mm"
     showgrid="false"
     inkscape:zoom="0.89263468"
     inkscape:cx="-148.43698"
     inkscape:cy="179.24466"
     inkscape:window-width="2560"
     inkscape:window-height="1369"
     inkscape:window-x="1912"
     inkscape:window-y="-8"
     inkscape:window-maximized="1"
     inkscape:current-layer="svg5" /><defs
     id="defs2"><linearGradient
       inkscape:collect="always"
       id="linearGradient164547"><stop
         style="stop-color:#fd5652;stop-opacity:1"
         offset="0"
         id="stop164545" /><stop
         style="stop-color:#fea152;stop-opacity:1;"
         offset="1"
         id="stop164543" /></linearGradient><linearGradient
       inkscape:collect="always"
       id="linearGradient141682"><stop
         style="stop-color:#1882af;stop-opacity:1"
         offset="0"
         id="stop141680" /><stop
         style="stop-color:#14c3e5;stop-opacity:1;"
         offset="0.5021643"
         id="stop141678" /></linearGradient><linearGradient
       inkscape:collect="always"
       id="linearGradient109096"><stop
         style="stop-color:#f628ce;stop-opacity:1"
         offset="0"
         id="stop109094" /><stop
         style="stop-color:#197bf1;stop-opacity:1;"
         offset="1"
         id="stop109092" /></linearGradient><linearGradient
       inkscape:collect="always"
       id="linearGradient44632"><stop
         style="stop-color:#fba75d;stop-opacity:1"
         offset="0"
         id="stop44630" /><stop
         style="stop-color:#c82767;stop-opacity:1;"
         offset="1"
         id="stop44628" /></linearGradient><linearGradient
       inkscape:collect="always"
       xlink:href="#linearGradient44632"
       id="linearGradient45338"
       x1="87.574776"
       y1="103.62927"
       x2="87.44239"
       y2="134.02005"
       gradientUnits="userSpaceOnUse" /><linearGradient
       inkscape:collect="always"
       xlink:href="#linearGradient109096"
       id="linearGradient109098"
       x1="92.174957"
       y1="119.07381"
       x2="114.67983"
       y2="123.52763"
       gradientUnits="userSpaceOnUse" /><linearGradient
       inkscape:collect="always"
       xlink:href="#linearGradient141682"
       id="linearGradient141684"
       x1="108.21433"
       y1="124.64813"
       x2="130.90944"
       y2="117.00357"
       gradientUnits="userSpaceOnUse" /><linearGradient
       inkscape:collect="always"
       xlink:href="#linearGradient164547"
       id="linearGradient164549"
       x1="92.719398"
       y1="109.70176"
       x2="112.49138"
       y2="96.956253"
       gradientUnits="userSpaceOnUse" /></defs><g
     inkscape:label="Layer 1"
     inkscape:groupmode="layer"
     id="layer1"
     style="display:inline"
     transform="translate(-41.371262,-82.333084)"><path
       style="display:inline;fill:#101030;fill-opacity:1;stroke-width:0.264583"
       id="path31431"
       sodipodi:type="arc"
       sodipodi:cx="101.37126"
       sodipodi:cy="142.33308"
       sodipodi:rx="60"
       sodipodi:ry="60"
       sodipodi:start="0"
       sodipodi:end="6.2782073"
       sodipodi:open="true"
       sodipodi:arc-type="arc"
       d="M 161.37126,142.33308 A 60,60 0 0 1 101.44593,202.33304 60,60 0 0 1 41.371447,142.48242 60,60 0 0 1 101.14725,82.333502 60,60 0 0 1 161.37052,142.0344"
       inkscape:label="Background" /><text
       xml:space="preserve"
       style="font-size:15.8173px;font-family:Arial;-inkscape-font-specification:Arial;display:inline;fill:#ffffff;fill-opacity:1;stroke-width:0.298927"
       x="89.795822"
       y="168.66299"
       id="text31494"
       inkscape:label="Helium"
       transform="scale(0.88510921,1.1298041)"><tspan
         sodipodi:role="line"
         id="tspan31492"
         x="89.795822"
         y="168.66299"
         style="stroke-width:0.298927">Helium</tspan></text><rect
       style="display:inline;fill:#ffffff;fill-opacity:1"
       id="rect31437"
       width="2.4020412"
       height="1.1785585"
       x="100.76455"
       y="173.06476"
       inkscape:label="StringBase3" /><rect
       style="display:inline;fill:#ffffff;fill-opacity:1"
       id="rect31434"
       width="2.3649879"
       height="0.95625579"
       x="100.76455"
       y="171.37894"
       inkscape:label="StringBase2" /><rect
       style="display:inline;fill:#ffffff;fill-opacity:1"
       id="rect31368"
       width="1.7721739"
       height="1.1044644"
       x="101.0239"
       y="169.91542"
       inkscape:label="StringBase" /><path
       style="display:inline;fill:url(#linearGradient141684);fill-opacity:1;stroke-width:0.264583"
       d="m 126.78817,108.04042 c 6.71002,6.05927 5.79976,16.13875 0.14821,21.48952 -10.68503,10.11636 -21.40188,2.3007 -21.26722,-10.52246 0.13659,-13.00782 11.21316,-19.912232 21.11901,-10.96706 z"
       id="path27978"
       sodipodi:nodetypes="ssss"
       inkscape:label="RightBallon" /><path
       style="display:inline;fill:url(#linearGradient45338);fill-opacity:1;stroke-width:0.264583"
       d="m 98.999999,108.41093 c 2.977171,2.91859 8.792301,14.02425 -3.186377,22.97155 -10.775957,8.04894 -21.356907,-2.72086 -22.671261,-10.38044 -2.073663,-12.08455 13.559546,-24.647225 25.857638,-12.59111 z"
       id="path1678"
       sodipodi:nodetypes="ssss"
       inkscape:label="LeftBallon" /><path
       style="display:inline;fill:none;stroke:#ffffff;stroke-width:0.75"
       d="m 98.427896,125.11693 c -1.346312,0.34582 -7.200051,3.55415 -5.80065,11.60089 2.352558,13.52753 9.455444,9.95035 9.197874,34.25356"
       id="path31371"
       sodipodi:nodetypes="csc"
       inkscape:label="LeftMiddleString" /><path
       style="display:inline;fill:none;stroke:#ffffff;stroke-width:0.75"
       d="m 105.87871,124.48816 c 1.34632,0.34582 7.14925,3.54548 5.80065,11.60089 -2.57486,15.38007 -10.34993,10.04507 -9.72185,34.82994"
       id="path31377"
       sodipodi:nodetypes="csc"
       inkscape:label="RightMiddleString" /><path
       style="display:inline;fill:url(#linearGradient109098);fill-opacity:1;stroke-width:0.265;stroke-dasharray:none"
       d="m 91.441615,121.30464 c -0.04334,-9.09196 6.062176,-13.7755 12.039245,-13.56219 6.4178,0.22904 12.3335,7.47825 12.19204,12.52477 -0.23361,8.33424 -6.74162,14.89865 -12.58447,14.53165 -5.927653,-0.37232 -11.607083,-5.15979 -11.646815,-13.49423 z"
       id="path31303"
       sodipodi:nodetypes="sssss"
       inkscape:label="FrontBallon" /><path
       style="display:inline;fill:none;stroke:#ffffff;stroke-width:0.75"
       d="m 106.14819,107.6875 c 6.22955,2.25453 13.60348,11.90808 10.85855,26.51085 -2.57497,13.6986 -13.93619,17.39628 -14.5888,36.80543"
       id="path31286"
       sodipodi:nodetypes="csc"
       inkscape:label="RightString" /><path
       style="display:inline;fill:none;stroke:#ffffff;stroke-width:0.75"
       d="m 100.27826,107.65138 c -4.437788,1.41997 -14.895004,6.17915 -14.023769,26.02826 0.709132,16.15596 14.196969,15.05983 15.144549,37.31952"
       id="path31290"
       sodipodi:nodetypes="csc"
       inkscape:label="LeftString" /><path
       id="path1729"
       style="display:inline;fill:url(#linearGradient164549);fill-opacity:1;stroke-width:0.264583"
       inkscape:label="AftBallon"
       d="m 102.94824,93.11318 c -5.769348,-0.02133 -11.532474,3.022853 -13.729913,10.2588 -0.01969,0.0648 -0.03684,0.12745 -0.05581,0.19172 3.259846,0.26091 6.660144,1.73228 9.837643,4.84725 0.02639,0.0259 0.05328,0.054 0.0801,0.0811 1.41005,-0.54931 2.90906,-0.80307 4.40076,-0.74983 1.70959,0.061 3.38265,0.62143 4.91546,1.50482 2.17441,-3.30347 5.45625,-5.24392 9.13381,-5.24671 -0.002,-0.0119 -0.003,-0.0238 -0.005,-0.0357 -1.07381,-6.608981 -7.83021,-10.826587 -14.5774,-10.85153 z" /></g></svg>
